<?xml version="1.0" encoding="UTF-8"?>
<svg id="esboço" xmlns="http://www.w3.org/2000/svg" width="48" height="48" viewBox="0 0 48 48">
  <defs>
    <style>
      .cls-1, .cls-2, .cls-3, .cls-4, .cls-5, .cls-6, .cls-7, .cls-8, .cls-9, .cls-10 {
        fill: none;
        stroke: #4189c9;
      }

      .cls-1, .cls-2, .cls-3, .cls-4, .cls-5, .cls-7, .cls-8, .cls-9, .cls-10 {
        stroke-miterlimit: 10;
      }

      .cls-1, .cls-3, .cls-4, .cls-5, .cls-6, .cls-7, .cls-10 {
        stroke-linecap: round;
      }

      .cls-1, .cls-6, .cls-8 {
        stroke-width: .77px;
      }

      .cls-2, .cls-4 {
        stroke-width: .98px;
      }

      .cls-3 {
        stroke-width: .49px;
      }

      .cls-5 {
        stroke-width: 1.05px;
      }

      .cls-6 {
        stroke-linejoin: round;
      }

      .cls-11 {
        fill: #4189c9;
      }

      .cls-7 {
        stroke-width: 1.26px;
      }

      .cls-9 {
        stroke-width: .63px;
      }

      .cls-10 {
        stroke-width: .91px;
      }
    </style>
  </defs>
  <g>
    <g>
      <g>
        <polyline class="cls-7" points="18.33 12.16 17.68 12.79 15.71 12.8 13.97 14.58 12.8 14.58 10.98 16.4 10.99 17.55 9.11 19.47 8.84 19.75 8.84 21.2 8.85 21.73 9.35 22.2 9.33 24.69 10.35 25.71"/>
        <polyline class="cls-5" points="25.31 11.86 21.98 11.86 19.5 14.86 17.5 14.87 15.22 17.05"/>
      </g>
      <polyline class="cls-5" points="12.24 23.63 12.24 24.75 13.23 25.74 13.23 27.17 13.85 27.79 16.04 27.79"/>
    </g>
    <polyline class="cls-5" points="39.16 25.75 39.16 23.07 38.57 22.49 38.57 19.99 37.51 18.92 37.51 17.6 36.32 16.41 35.1 16.41 33.2 14.72 31.14 14.72"/>
    <polyline class="cls-4" points="16.28 29 17.03 29.74 17.74 29.74 18.83 30.83 22.49 30.83 23.8 29.52 25.34 28.74 28.6 28.74 31.02 27.08 37.83 27.08 39.16 25.75"/>
    <path class="cls-5" d="m32.04,12.56s-1.13,0-1.13,0l-.93-.76h-1.78l-1.55,1.55v2.11l-1.35,1.35v2.83l-3.56,3.56h-2.68l-2.78,2.78v3.02"/>
    <polyline class="cls-2" points="27.22 28.77 27.22 29.93 28.14 30.86 28.39 31.59 30.19 32.74 31.88 32.74 32.57 32.2 34.29 32.2 36.17 30.32 36.17 29.31 36.99 28.5 36.99 27.39"/>
  </g>
  <g>
    <circle class="cls-8" cx="15.22" cy="24.67" r=".56"/>
    <circle class="cls-8" cx="15.22" cy="18.94" r=".56"/>
    <polyline class="cls-1" points="14.56 24.2 13.59 23.28 13.59 20.51 14.73 19.5"/>
  </g>
  <circle class="cls-8" cx="29.49" cy="17.13" r=".61"/>
  <circle class="cls-8" cx="33.97" cy="23.78" r=".61"/>
  <polyline class="cls-8" points="29.49 17.5 29.49 17.75 29.49 20.17"/>
  <polyline class="cls-8" points="29.74 21.34 30.83 22.43 32.83 22.43 33.65 23.25 33.89 23.49"/>
  <g>
    <circle class="cls-8" cx="33.71" cy="17.7" r=".61"/>
    <circle class="cls-8" cx="36.92" cy="24.8" r=".61"/>
    <polyline class="cls-8" points="34.14 18.14 34.77 18.77 34.77 21.11 36.76 23.09 36.76 24.35"/>
  </g>
  <polyline class="cls-10" points="23.62 30.48 25.08 32.17 26.35 32.64 26.35 33.46 27.88 34.71 28.92 36.2 30.87 36.2 29.76 34.07"/>
  <circle class="cls-11" cx="31.48" cy="29.31" r=".61"/>
  <polyline class="cls-9" points="36.17 29.31 34.31 29.31 31.48 29.31"/>
  <polyline class="cls-3" points="34.31 29.31 32.91 30.71 30.97 30.71"/>
  <g>
    <polyline class="cls-1" points="19.13 20.11 20.46 20.11 22.42 18.15 22.33 16.63"/>
    <line class="cls-1" x1="19.13" y1="20.11" x2="17.81" y2="21.42"/>
    <line class="cls-6" x1="23.65" y1="15.29" x2="22.33" y2="16.6"/>
    <circle class="cls-8" cx="17.47" cy="21.95" r=".61"/>
    <circle class="cls-8" cx="24.16" cy="14.72" r=".61"/>
  </g>
  <g>
    <polyline class="cls-1" points="27.82 22.63 26.48 22.63 24.52 24.59 24.61 26.11"/>
    <line class="cls-1" x1="27.82" y1="22.63" x2="29.13" y2="21.31"/>
    <line class="cls-6" x1="23.3" y1="27.45" x2="24.61" y2="26.14"/>
    <path class="cls-8" d="m30.08,20.79c0,.24-.14.45-.34.55-.08.04-.18.06-.27.06-.34,0-.62-.28-.62-.62s.28-.61.62-.61h.02c.33,0,.6.28.6.61h0Z"/>
    <circle class="cls-8" cx="22.78" cy="28.02" r=".61"/>
  </g>
</svg>